HIERARCHY
ROOT Root
{
  OFFSET 0.0 0.0 0.0
  CHANNELS 6 Xposition Yposition Zposition Zrotation Yrotation Xrotation
  JOINT Hips
  {
    OFFSET 0.0 100.0 0.0
    CHANNELS 6 Xposition Yposition Zposition Zrotation Yrotation Xrotation
    JOINT Spine1
    {
      OFFSET 5.003913 -0.037094 -0.013727
      CHANNELS 3 Zrotation Yrotation Xrotation
      JOINT Spine2
      {
        OFFSET 7.125363 -1e-06 0.0
        CHANNELS 3 Zrotation Yrotation Xrotation
        JOINT Chest
        {
          OFFSET 7.594027 1e-06 0.0
          CHANNELS 3 Zrotation Yrotation Xrotation
          JOINT Neck1
          {
            OFFSET 26.313086 -0.460272 -0.181672
            CHANNELS 3 Zrotation Yrotation Xrotation
            JOINT Neck2
            {
              OFFSET 8.045911 0.0 0.0
              CHANNELS 3 Zrotation Yrotation Xrotation
              JOINT Head
              {
                OFFSET 6.432774 0.0 0.0
                CHANNELS 3 Zrotation Yrotation Xrotation
                JOINT HeadEnd
                {
                  OFFSET 16.169773 0.06451 0.00362
                  CHANNELS 3 Zrotation Yrotation Xrotation
                }
                JOINT Jaw
                {
                  OFFSET 0.108741 3.12938 0.002639
                  CHANNELS 3 Zrotation Yrotation Xrotation
                }
                JOINT LeftEye
                {
                  OFFSET 4.45173 8.166359 3.206392
                  CHANNELS 3 Zrotation Yrotation Xrotation
                }
                JOINT RightEye
                {
                  OFFSET 4.436895 8.135758 -3.222429
                  CHANNELS 3 Zrotation Yrotation Xrotation
                }
              }
            }
          }
          JOINT LeftShoulder
          {
            OFFSET 23.218927 5.195579 1.621656
            CHANNELS 3 Zrotation Yrotation Xrotation
            JOINT LeftArm
            {
              OFFSET 15.902118 2e-06 -2e-06
              CHANNELS 3 Zrotation Yrotation Xrotation
              JOINT LeftForeArm
              {
                OFFSET 28.739307 0.0 -1e-06
                CHANNELS 3 Zrotation Yrotation Xrotation
                JOINT LeftHand
                {
                  OFFSET 27.093981 -4e-06 0.0
                  CHANNELS 3 Zrotation Yrotation Xrotation
                  JOINT LeftHandThumb1
                  {
                    OFFSET 2.276781 3.380274 0.83384
                    CHANNELS 3 Zrotation Yrotation Xrotation
                    JOINT LeftHandThumb2
                    {
                      OFFSET 4.705309 -1e-06 -1e-06
                      CHANNELS 3 Zrotation Yrotation Xrotation
                      JOINT LeftHandThumb3
                      {
                        OFFSET 2.798515 0.0 3e-06
                        CHANNELS 3 Zrotation Yrotation Xrotation
                        JOINT LeftHandThumbEnd
                        {
                          OFFSET 3.180793 4e-06 -4e-06
                          CHANNELS 3 Zrotation Yrotation Xrotation
                        }
                      }
                    }
                  }
                  JOINT LeftHandIndex1
                  {
                    OFFSET 3.247786 2.352677 0.137192
                    CHANNELS 3 Zrotation Yrotation Xrotation
                    JOINT LeftHandIndex2
                    {
                      OFFSET 6.367095 1e-06 0.0
                      CHANNELS 3 Zrotation Yrotation Xrotation
                      JOINT LeftHandIndex3
                      {
                        OFFSET 3.662364 0.0 0.0
                        CHANNELS 3 Zrotation Yrotation Xrotation
                        JOINT LeftHandIndex4
                        {
                          OFFSET 2.329242 4e-06 -4e-06
                          CHANNELS 3 Zrotation Yrotation Xrotation
                          JOINT LeftHandIndexEnd
                          {
                            OFFSET 2.767823 1e-06 0.0
                            CHANNELS 3 Zrotation Yrotation Xrotation
                          }
                        }
                      }
                    }
                  }
                  JOINT LeftHandMiddle1
                  {
                    OFFSET 3.163612 0.945023 -0.406112
                    CHANNELS 3 Zrotation Yrotation Xrotation
                    JOINT LeftHandMiddle2
                    {
                      OFFSET 6.276789 3e-06 0.0
                      CHANNELS 3 Zrotation Yrotation Xrotation
                      JOINT LeftHandMiddle3
                      {
                        OFFSET 4.35652 -1e-06 4e-06
                        CHANNELS 3 Zrotation Yrotation Xrotation
                        JOINT LeftHandMiddle4
                        {
                          OFFSET 2.996877 0.0 8e-06
                          CHANNELS 3 Zrotation Yrotation Xrotation
                          JOINT LeftHandMiddleEnd
                          {
                            OFFSET 2.323256 3e-06 -4e-06
                            CHANNELS 3 Zrotation Yrotation Xrotation
                          }
                        }
                      }
                    }
                  }
                  JOINT LeftHandRing1
                  {
                    OFFSET 2.882606 -0.309162 0.107445
                    CHANNELS 3 Zrotation Yrotation Xrotation
                    JOINT LeftHandRing2
                    {
                      OFFSET 6.033198 0.0 4e-06
                      CHANNELS 3 Zrotation Yrotation Xrotation
                      JOINT LeftHandRing3
                      {
                        OFFSET 4.350578 3e-06 0.0
                        CHANNELS 3 Zrotation Yrotation Xrotation
                        JOINT LeftHandRing4
                        {
                          OFFSET 2.651321 2e-06 -7e-06
                          CHANNELS 3 Zrotation Yrotation Xrotation
                          JOINT LeftHandRingEnd
                          {
                            OFFSET 1.937663 1e-06 -4e-06
                            CHANNELS 3 Zrotation Yrotation Xrotation
                          }
                        }
                      }
                    }
                  }
                  JOINT LeftHandPinky1
                  {
                    OFFSET 2.865315 -1.525436 0.575687
                    CHANNELS 3 Zrotation Yrotation Xrotation
                    JOINT LeftHandPinky2
                    {
                      OFFSET 5.54936 1e-06 -8e-06
                      CHANNELS 3 Zrotation Yrotation Xrotation
                      JOINT LeftHandPinky3
                      {
                        OFFSET 3.070974 0.0 -4e-06
                        CHANNELS 3 Zrotation Yrotation Xrotation
                        JOINT LeftHandPinky4
                        {
                          OFFSET 1.549672 1e-06 0.0
                          CHANNELS 3 Zrotation Yrotation Xrotation
                          JOINT LeftHandPinkyEnd
                          {
                            OFFSET 1.952123 0.0 0.0
                            CHANNELS 3 Zrotation Yrotation Xrotation
                          }
                        }
                      }
                    }
                  }
                }
              }
            }
          }
          JOINT RightShoulder
          {
            OFFSET 23.161716 5.296122 -1.380114
            CHANNELS 3 Zrotation Yrotation Xrotation
            JOINT RightArm
            {
              OFFSET -16.027195 -2e-06 1.1e-05
              CHANNELS 3 Zrotation Yrotation Xrotation
              JOINT RightForeArm
              {
                OFFSET -28.736639 4e-06 2e-06
                CHANNELS 3 Zrotation Yrotation Xrotation
                JOINT RightHand
                {
                  OFFSET -27.133619 6e-06 0.0
                  CHANNELS 3 Zrotation Yrotation Xrotation
                  JOINT RightHandThumb1
                  {
                    OFFSET -2.274328 -3.351035 -0.83067
                    CHANNELS 3 Zrotation Yrotation Xrotation
                    JOINT RightHandThumb2
                    {
                      OFFSET -4.703594 -3e-06 2e-06
                      CHANNELS 3 Zrotation Yrotation Xrotation
                      JOINT RightHandThumb3
                      {
                        OFFSET -2.794935 -4e-06 -3e-06
                        CHANNELS 3 Zrotation Yrotation Xrotation
                        JOINT RightHandThumbEnd
                        {
                          OFFSET -3.183852 4e-06 1e-06
                          CHANNELS 3 Zrotation Yrotation Xrotation
                        }
                      }
                    }
                  }
                  JOINT RightHandIndex1
                  {
                    OFFSET -3.253496 -2.33755 -0.127667
                    CHANNELS 3 Zrotation Yrotation Xrotation
                    JOINT RightHandIndex2
                    {
                      OFFSET -6.344434 0.0 0.0
                      CHANNELS 3 Zrotation Yrotation Xrotation
                      JOINT RightHandIndex3
                      {
                        OFFSET -3.654871 0.0 -8e-06
                        CHANNELS 3 Zrotation Yrotation Xrotation
                        JOINT RightHandIndex4
                        {
                          OFFSET -2.327586 -1e-06 0.0
                          CHANNELS 3 Zrotation Yrotation Xrotation
                          JOINT RightHandIndexEnd
                          {
                            OFFSET -2.770001 3e-06 8e-06
                            CHANNELS 3 Zrotation Yrotation Xrotation
                          }
                        }
                      }
                    }
                  }
                  JOINT RightHandMiddle1
                  {
                    OFFSET -3.168223 -0.944764 0.411762
                    CHANNELS 3 Zrotation Yrotation Xrotation
                    JOINT RightHandMiddle2
                    {
                      OFFSET -6.266691 -1e-06 -4e-06
                      CHANNELS 3 Zrotation Yrotation Xrotation
                      JOINT RightHandMiddle3
                      {
                        OFFSET -4.348901 0.0 0.0
                        CHANNELS 3 Zrotation Yrotation Xrotation
                        JOINT RightHandMiddle4
                        {
                          OFFSET -3.00024 2e-06 -4e-06
                          CHANNELS 3 Zrotation Yrotation Xrotation
                          JOINT RightHandMiddleEnd
                          {
                            OFFSET -2.321477 -4e-06 -4e-06
                            CHANNELS 3 Zrotation Yrotation Xrotation
                          }
                        }
                      }
                    }
                  }
                  JOINT RightHandRing1
                  {
                    OFFSET -2.885654 0.293261 -0.119232
                    CHANNELS 3 Zrotation Yrotation Xrotation
                    JOINT RightHandRing2
                    {
                      OFFSET -6.032835 -1e-06 -4e-06
                      CHANNELS 3 Zrotation Yrotation Xrotation
                      JOINT RightHandRing3
                      {
                        OFFSET -4.33881 0.0 -4e-06
                        CHANNELS 3 Zrotation Yrotation Xrotation
                        JOINT RightHandRing4
                        {
                          OFFSET -2.654903 -4e-06 -4e-06
                          CHANNELS 3 Zrotation Yrotation Xrotation
                          JOINT RightHandRingEnd
                          {
                            OFFSET -1.935122 0.0 4e-06
                            CHANNELS 3 Zrotation Yrotation Xrotation
                          }
                        }
                      }
                    }
                  }
                  JOINT RightHandPinky1
                  {
                    OFFSET -2.866241 1.503904 -0.60527
                    CHANNELS 3 Zrotation Yrotation Xrotation
                    JOINT RightHandPinky2
                    {
                      OFFSET -5.553177 -2e-06 0.0
                      CHANNELS 3 Zrotation Yrotation Xrotation
                      JOINT RightHandPinky3
                      {
                        OFFSET -3.062664 -1e-06 -4e-06
                        CHANNELS 3 Zrotation Yrotation Xrotation
                        JOINT RightHandPinky4
                        {
                          OFFSET -1.546529 2e-06 4e-06
                          CHANNELS 3 Zrotation Yrotation Xrotation
                          JOINT RightHandPinkyEnd
                          {
                            OFFSET -1.952341 0.0 -4e-06
                            CHANNELS 3 Zrotation Yrotation Xrotation
                          }
                        }
                      }
                    }
                  }
                }
              }
            }
          }
        }
      }
    }
    JOINT LeftLeg
    {
      OFFSET -8.443107 2.567604 10.043214
      CHANNELS 3 Zrotation Yrotation Xrotation
      JOINT LeftShin
      {
        OFFSET 43.229198 1e-06 -1e-06
        CHANNELS 3 Zrotation Yrotation Xrotation
        JOINT LeftFoot
        {
          OFFSET 42.298611 1e-06 1e-06
          CHANNELS 3 Zrotation Yrotation Xrotation
          JOINT LeftToeBase
          {
            OFFSET 14.165858 1e-06 0.0
            CHANNELS 3 Zrotation Yrotation Xrotation
            JOINT LeftToeEnd
            {
              OFFSET 6.7141 -0.234461 0.0
              CHANNELS 3 Zrotation Yrotation Xrotation
            }
          }
        }
      }
    }
    JOINT RightLeg
    {
      OFFSET -8.303923 2.592729 -10.047278
      CHANNELS 3 Zrotation Yrotation Xrotation
      JOINT RightShin
      {
        OFFSET -43.369682 0.0 1e-06
        CHANNELS 3 Zrotation Yrotation Xrotation
        JOINT RightFoot
        {
          OFFSET -42.260784 4e-06 2e-06
          CHANNELS 3 Zrotation Yrotation Xrotation
          JOINT RightToeBase
          {
            OFFSET -14.222245 -2e-06 -1e-06
            CHANNELS 3 Zrotation Yrotation Xrotation
            JOINT RightToeEnd
            {
              OFFSET -6.660062 0.232574 -2e-06
              CHANNELS 3 Zrotation Yrotation Xrotation
            }
          }
        }
      }
    }
  }
}
MOTION
Frames: 5
Frame Time: 0.03333333333333333
0.0 0.0 0.0 0.0 -0.0 0.0 -1.489385 99.736641 4.510536 90.607101 1.747191 90.152115 -0.870256 -0.662314 0.137747 -11.419224 -0.70472 0.089133 19.259573 -0.431654 -2.084599 26.799814 2.109892 2.712473 -2.605168 -0.757097 -0.361522 -37.109383 -0.801903 -0.504911 6e-06 -0.0 -0.0 0.051822 0.018925 -0.026903 0.074879 -0.012658 -0.024939 0.046667 0.050966 -0.023711 -104.139107 -73.924179 120.282143 45.575764 -59.894379 7.841215 31.0872 -0.486517 -0.013248 3.963837 10.68176 10.920087 17.636627 -26.322737 52.411198 -19.466665 -14.395598 29.410393 -1e-06 -8.774822 -0.0 15.67384 -18.283092 6.213676 -0.609774 -1.795654 -3.889325 -4.807088 -11.046812 -2.937852 5e-06 -20.976019 -2e-06 -5.019968 -25.033562 -4.031883 4e-06 1e-06 -0.0 -10.634533 -5.68697 -3.565588 10.573274 -17.922955 -3.113899 2e-06 -13.821211 -2e-06 -0.501772 -31.181507 -4.027019 -11.519755 -59.322132 7.239305 -13.982713 -7.150199 -2.875043 13.77273 -8.401492 -3.218241 0.347736 -34.211555 0.771652 -0.963028 -17.733372 2.621021 1e-06 0.0 0.0 -17.346418 -20.095221 -4.201784 21.757557 -1.638375 3.866427 2e-06 -6.338822 -1e-06 -1.697587 -22.591747 -6.194009 -1e-06 -3e-06 -1e-06 67.831436 -76.863495 127.917 41.610931 -64.095955 2.602481 31.602339 0.124059 0.022128 3.391726 3.469628 14.300468 22.18211 -20.375891 49.933319 -16.701811 -16.743526 28.476522 -3e-06 -12.6906 -2e-06 16.038473 -17.716984 2.517023 -0.10592 -1.513857 -4.275881 -5.039041 -5.612873 -2.953556 5e-06 -11.020523 -2e-06 -6.111297 -15.895332 -3.840472 -0.0 1e-06 1e-06 -10.283371 -5.680289 -4.341838 11.028292 -11.302402 -2.372633 -1.384269 -14.238579 -6.320122 -0.62544 -26.924183 -3.827605 -4.269772 -49.639187 -3.916519 -13.708522 -7.363477 -3.720937 18.141146 -14.052738 -3.242676 6e-06 -18.787268 -4e-06 -0.429713 -8.456041 2.555504 -1e-06 -0.0 -1e-06 -15.923532 -20.094482 -5.473582 30.419207 -7.190824 1.735925 1e-06 -8.162925 -1e-06 -1.861904 -22.861467 -6.167942 1e-06 -3e-06 0.0 -176.98024 -4.413041 -9.108292 9.996018 0.017201 -0.08768 -79.711266 -0.562018 -6.344724 -5.606791 1.482447 2.116931 -1.0 0.0 -0.0 3.096746 -4.528718 -14.392118 12.651905 0.023702 -0.03452 -81.998741 -0.841342 -3.884979 -6.176675 0.712364 1.656829 -1.000002 -0.0 0.0 
0.0 0.0 0.0 0.0 -0.0 0.0 -1.451648 99.730385 4.68377 90.600922 1.749546 90.157166 -0.910142 -0.654945 0.1316 -11.421957 -0.691339 0.139885 19.185284 -0.426543 -2.130952 26.840652 2.130558 2.717705 -2.59651 -0.735851 -0.416201 -37.029331 -0.809956 -0.481394 6e-06 -0.0 -0.0 0.047204 0.015965 -0.011439 0.071375 -0.012845 -0.009991 0.045703 0.04509 -0.008575 -103.90126 -73.982086 119.996483 45.652519 -60.034084 7.806087 31.051149 -0.490272 -0.074657 4.054712 10.581226 11.161453 17.636627 -26.322735 52.411209 -19.46666 -14.3956 29.410393 -1e-06 -8.774821 1e-06 15.704562 -18.251024 6.175021 -0.609777 -1.795657 -3.889327 -4.807088 -11.04681 -2.937853 4e-06 -20.976015 -2e-06 -5.019969 -25.03356 -4.031879 7e-06 1e-06 0.0 -10.634535 -5.686971 -3.565587 10.573274 -17.922947 -3.113901 0.0 -13.821206 -1e-06 -0.501778 -31.181501 -4.027014 -11.413602 -59.321308 7.213715 -13.982713 -7.150198 -2.875041 13.772729 -8.401491 -3.218241 0.347733 -34.211544 0.771652 -0.963031 -17.733366 2.621022 -0.0 -0.0 0.0 -17.346416 -20.095217 -4.201783 21.757555 -1.638374 3.866426 2e-06 -6.338821 0.0 -1.69759 -22.591742 -6.194003 -1e-06 -5e-06 -2e-06 68.22393 -76.831558 127.522392 41.707939 -64.126617 2.448898 31.392647 0.075947 0.020619 3.444817 3.43054 14.130669 22.182121 -20.375898 49.933327 -16.701813 -16.74353 28.47653 -4e-06 -12.690603 -0.0 16.041685 -17.731075 2.519845 -0.105919 -1.513857 -4.275882 -5.039042 -5.612872 -2.953557 6e-06 -11.020521 -1e-06 -6.111299 -15.89533 -3.840474 0.0 1e-06 1e-06 -10.283372 -5.680288 -4.34184 11.028293 -11.302406 -2.372629 -1.384269 -14.238582 -6.320123 -0.625439 -26.924194 -3.827602 -4.347358 -49.771797 -3.820037 -13.708526 -7.363476 -3.720941 18.141151 -14.052738 -3.242672 6e-06 -18.78727 -1e-06 -0.429712 -8.456045 2.555506 0.0 0.0 -2e-06 -15.923539 -20.094484 -5.473582 30.419222 -7.190827 1.735925 3e-06 -8.162927 -1e-06 -1.861903 -22.861469 -6.167941 3e-06 -3e-06 -1e-06 -176.798096 -4.38671 -9.073777 9.848581 0.018964 -0.036726 -79.757675 -0.599807 -6.433337 -5.60365 1.507706 2.129871 -0.999999 0.0 -0.0 3.334081 -4.505483 -14.349432 12.391425 0.017222 -0.02799 -81.980789 -0.896226 -3.923426 -6.199594 0.694153 1.6556 -1.000002 0.0 -0.0 
0.0 0.0 0.0 0.0 -0.0 0.0 -1.401925 99.714149 4.833314 90.612961 1.745366 90.15741 -0.952392 -0.659459 0.121088 -11.433928 -0.681298 0.167261 19.123228 -0.420738 -2.143999 26.856701 2.138984 2.717123 -2.623315 -0.714246 -0.456366 -36.910206 -0.809142 -0.487438 6e-06 -0.0 -0.0 0.042947 0.014606 -0.01013 0.053773 -0.015755 -0.008599 0.034438 0.044917 -0.008118 -103.699799 -74.038177 119.709366 45.633083 -60.173904 7.885796 31.059486 -0.493751 -0.120371 4.091017 10.516056 11.286486 17.636625 -26.322733 52.411194 -19.466658 -14.395596 29.410393 -1e-06 -8.77482 -2e-06 15.735404 -18.268848 6.150795 -0.609776 -1.795655 -3.88933 -4.807088 -11.04681 -2.93785 4e-06 -20.976017 0.0 -5.019969 -25.03356 -4.031879 6e-06 3e-06 0.0 -10.634533 -5.686973 -3.565586 10.573272 -17.922951 -3.113901 0.0 -13.821209 -1e-06 -0.501779 -31.181505 -4.027016 -11.386688 -59.30389 7.174593 -13.982712 -7.150198 -2.875043 13.772726 -8.401492 -3.218241 0.347733 -34.211544 0.771653 -0.963032 -17.733366 2.621021 -1e-06 0.0 0.0 -17.346422 -20.095219 -4.201785 21.757557 -1.638373 3.866427 1e-06 -6.338822 -0.0 -1.697592 -22.591745 -6.194002 0.0 -5e-06 -1e-06 68.467636 -76.829872 127.23465 41.614094 -64.141396 2.467695 31.215635 0.026731 0.013318 3.485777 3.405155 14.047857 22.182112 -20.375889 49.933323 -16.701807 -16.743526 28.476528 -1e-06 -12.6906 -1e-06 16.064856 -17.725994 2.531662 -0.105919 -1.513857 -4.275878 -5.039043 -5.612872 -2.953556 4e-06 -11.020519 -2e-06 -6.1113 -15.89533 -3.840472 1e-06 0.0 1e-06 -10.283369 -5.68029 -4.341839 11.028291 -11.3024 -2.372632 -1.38427 -14.238577 -6.320124 -0.625441 -26.924179 -3.827603 -4.40289 -49.851357 -3.764611 -13.708524 -7.363476 -3.720939 18.141146 -14.052732 -3.242675 4e-06 -18.787266 -2e-06 -0.429714 -8.456041 2.555503 2e-06 -1e-06 -0.0 -15.923536 -20.094482 -5.473582 30.41921 -7.19082 1.735927 3e-06 -8.162922 -1e-06 -1.861901 -22.861465 -6.167943 -1e-06 -2e-06 0.0 -176.714661 -4.345258 -9.01711 9.87359 0.0171 -0.007392 -79.873062 -0.656042 -6.453954 -5.572833 1.515991 2.136193 -0.999999 -0.0 0.0 3.449723 -4.539099 -14.311715 12.347852 0.014236 -0.024992 -82.044373 -0.970832 -3.982092 -6.172723 0.685097 1.654001 -1.000002 1e-06 -0.0 
0.0 0.0 0.0 0.0 -0.0 0.0 -1.365765 99.69809 4.961904 90.645149 1.730891 90.166145 -0.982483 -0.678646 0.109295 -11.446505 -0.673068 0.176867 19.03933 -0.425003 -2.13618 26.849102 2.132225 2.706066 -2.649002 -0.696905 -0.466147 -36.837639 -0.795482 -0.497384 6e-06 0.0 -0.0 0.038552 0.013403 -0.016115 0.039785 -0.018119 -0.013619 0.023566 0.044726 -0.015609 -103.471344 -74.091454 119.417366 45.664726 -60.274311 7.923789 31.085472 -0.487196 -0.130624 4.125612 10.541447 11.399802 17.636629 -26.322742 52.411205 -19.466658 -14.395598 29.410389 -0.0 -8.774821 -1e-06 15.731184 -18.268063 6.138681 -0.609776 -1.795654 -3.889326 -4.807089 -11.04681 -2.937849 4e-06 -20.976015 2e-06 -5.019972 -25.033556 -4.031879 7e-06 -0.0 0.0 -10.634535 -5.68697 -3.565586 10.573274 -17.922951 -3.113898 2e-06 -13.821209 1e-06 -0.501782 -31.181501 -4.027009 -11.368019 -59.267178 7.129663 -13.982714 -7.150198 -2.875042 13.77273 -8.401491 -3.218239 0.347733 -34.211555 0.771656 -0.96303 -17.733372 2.621023 -1e-06 0.0 0.0 -17.346416 -20.095217 -4.201781 21.757555 -1.638375 3.866428 2e-06 -6.338822 1e-06 -1.69759 -22.591749 -6.194004 -1e-06 -3e-06 -2e-06 68.772629 -76.865387 126.855507 41.397106 -64.170387 2.645751 31.12228 0.003269 0.011641 3.487523 3.331395 13.928968 22.182121 -20.3759 49.933323 -16.701818 -16.74353 28.476532 -4e-06 -12.690603 -1e-06 16.077818 -17.700983 2.545228 -0.10592 -1.513857 -4.275884 -5.039042 -5.612872 -2.953554 5e-06 -11.020523 -2e-06 -6.111296 -15.895332 -3.840472 -0.0 1e-06 2e-06 -10.28337 -5.680288 -4.341838 11.028296 -11.302407 -2.372634 -1.384267 -14.238582 -6.320124 -0.625439 -26.924191 -3.8276 -4.444247 -49.84457 -3.720551 -13.708524 -7.363475 -3.720941 18.141153 -14.052741 -3.242677 1e-05 -18.78727 -4e-06 -0.429709 -8.456047 2.555506 1e-06 1e-06 -1e-06 -15.923536 -20.094484 -5.473584 30.419222 -7.190829 1.735923 3e-06 -8.162926 -1e-06 -1.861901 -22.861469 -6.167942 0.0 -2e-06 0.0 -176.639359 -4.288312 -9.001743 9.862782 0.013518 0.007523 -79.954208 -0.696189 -6.438428 -5.55929 1.515277 2.136844 -0.999999 -0.0 -0.0 3.501112 -4.602384 -14.308097 12.396997 0.015681 -0.032817 -82.141571 -0.996878 -4.019991 -6.157596 0.674182 1.650369 -1.000003 1e-06 -0.0 
0.0 0.0 0.0 0.0 -0.0 0.0 -1.347982 99.685692 5.069642 90.674805 1.693392 90.196777 -1.016272 -0.691379 0.110567 -11.456867 -0.667187 0.173214 18.933975 -0.435638 -2.138072 26.788544 2.105202 2.698848 -2.660357 -0.671866 -0.451531 -36.814182 -0.760581 -0.507252 6e-06 -0.0 -0.0 0.038329 0.01315 -0.016667 0.036746 -0.017252 -0.01383 0.021041 0.04338 -0.017106 -103.119934 -74.141235 119.016891 45.773476 -60.355671 7.885129 31.1334 -0.469685 -0.123958 4.185333 10.642188 11.54921 17.636633 -26.322731 52.41119 -19.466663 -14.395596 29.410385 -1e-06 -8.774822 -1e-06 15.691494 -18.249531 6.141826 -0.609777 -1.795653 -3.889326 -4.807088 -11.046811 -2.937854 6e-06 -20.976019 -2e-06 -5.019965 -25.03356 -4.031882 5e-06 0.0 0.0 -10.634533 -5.68697 -3.565585 10.573275 -17.922951 -3.113902 3e-06 -13.821209 -1e-06 -0.501775 -31.181505 -4.027019 -11.334091 -59.20393 7.074374 -13.982713 -7.150198 -2.875041 13.772729 -8.401492 -3.218244 0.347738 -34.211555 0.771652 -0.963027 -17.73337 2.621022 -0.0 -0.0 0.0 -17.346418 -20.095221 -4.201781 21.757557 -1.638374 3.866429 1e-06 -6.338824 -0.0 -1.69759 -22.591745 -6.194005 -0.0 -3e-06 -3e-06 69.286789 -76.930817 126.234207 41.079178 -64.234001 2.99275 31.129637 0.008864 0.021081 3.457332 3.205188 13.712592 22.182114 -20.375895 49.933319 -16.701817 -16.743528 28.476532 -3e-06 -12.690601 -0.0 16.089825 -17.687624 2.558254 -0.105921 -1.513858 -4.275879 -5.039041 -5.612873 -2.953558 5e-06 -11.020526 -1e-06 -6.111298 -15.895336 -3.840471 -0.0 1e-06 1e-06 -10.283372 -5.680289 -4.341837 11.028296 -11.302406 -2.372633 -1.384269 -14.238581 -6.320122 -0.625438 -26.924191 -3.827601 -4.474964 -49.814453 -3.698725 -13.708527 -7.363478 -3.720941 18.141151 -14.052742 -3.242675 7e-06 -18.787271 -4e-06 -0.429713 -8.456044 2.555503 1e-06 -1e-06 -0.0 -15.923538 -20.094484 -5.47358 30.419222 -7.190826 1.735923 3e-06 -8.162927 -1e-06 -1.861901 -22.861473 -6.167946 1e-06 -5e-06 0.0 -176.597961 -4.246491 -9.002733 9.839067 0.009666 0.010032 -80.011604 -0.699399 -6.407707 -5.547789 1.509048 2.13401 -0.999999 -0.0 -0.0 3.517376 -4.651748 -14.335726 12.447609 0.017147 -0.034421 -82.230904 -1.00795 -4.05607 -6.133206 0.665875 1.647726 -1.000002 0.0 -0.0 
